<svg width="200" height="50" fill="none" xmlns="http://www.w3.org/2000/svg"><path d="M87.294 28.54l2.31-10.446a25.112 25.112 0 00-5.424-.704c-2.913 0-5.022.704-6.63 2.612-2.712 3.114-3.515 7.735-4.922 10.045-.602 1.005-3.817 1.608-4.72 1.206.122-.78.29-1.55.501-2.31l.503-2.01c.298-1.289.5-2.598.602-3.917 0-4.621-3.917-5.525-7.031-5.525-2.283.01-4.54.49-6.63 1.406l.703 3.516c1.58-.71 3.29-1.086 5.023-1.105 2.31 0 3.013.904 3.013 2.21.005.271-.028.542-.1.804h-1.708c-3.214 0-6.127.602-8.036 2.31a5.736 5.736 0 00-1.908 4.62 4.61 4.61 0 004.42 4.822h.602a6.851 6.851 0 005.424-3.013c.302 2.21 2.11 3.114 4.32 3.013 2.913-.1 7.835-1.004 9.342-4.319 1.406-2.913 2.41-6.228 4.018-8.639a2.864 2.864 0 012.511-1.406h.502l-1.607 7.132a10.397 10.397 0 001.004 7.534l4.621-1.708a8.157 8.157 0 01-.602-6.127m-23.707-.503a5.023 5.023 0 01-4.42 3.817c-1.105 0-1.707-.502-1.707-1.607a2.01 2.01 0 01.703-1.607c.803-.804 2.31-1.205 4.62-1.205h1.005l-.2.602zm66.197.503l2.311-10.648h-4.722l-4.821 5.726a19.359 19.359 0 00-2.21 2.812h-.201a88.8 88.8 0 00-3.415-8.538h-3.918c-.904 4.62-1.908 9.543-3.114 11.752-.603 1.206-3.917 2.31-5.123 1.91.119-.88.287-1.752.502-2.613l.503-2.009c.298-1.289.5-2.598.602-3.917 0-4.621-3.917-5.525-7.031-5.525-2.283.01-4.54.49-6.63 1.406l.703 3.516c1.58-.71 3.29-1.086 5.023-1.105 2.31 0 3.013.904 3.013 2.21a2.21 2.21 0 01-.1.804h-1.708c-3.214 0-6.127.602-8.036 2.31a5.737 5.737 0 00-1.909 4.62 4.61 4.61 0 004.42 4.822h.603a6.852 6.852 0 005.424-3.013c.503 3.917 8.036 3.516 11.05 1.507 2.109-1.407 2.913-3.215 3.717-5.726.301-1.005.602-2.11.803-3.114h.101c.904 2.009 1.707 4.52 2.31 6.328h2.11l3.214-3.817c.603-.703 1.507-1.808 2.009-2.511h.1c-.904 3.214-2.209 7.333-.1 10.648l4.822-1.808a9.584 9.584 0 01-.302-6.027zm-29.13-.503a5.024 5.024 0 01-4.42 3.817c-1.105 0-1.808-.502-1.808-1.607a2.009 2.009 0 01.703-1.607c.803-.804 2.31-1.205 4.62-1.205h1.005l-.1.602zm64.991-10.447c-2.611-.602-4.922.201-7.031 3.114a5.75 5.75 0 00-.904-3.616l-4.219 1.607a5.834 5.834 0 01.502 3.416l-1.909 8.94c-1.105.603-4.419.904-4.821.402.201-1.306.703-3.114 1.105-4.621.298-1.289.5-2.599.602-3.918 0-4.62-3.917-5.524-7.031-5.524-2.283.01-4.539.489-6.63 1.406l.703 3.516c1.58-.71 3.29-1.087 5.023-1.105 2.31 0 3.013.904 3.013 2.21a2.8 2.8 0 01-.1.803h-1.708c-3.214 0-6.127.603-7.935 2.31a5.734 5.734 0 00-1.909 4.621 4.62 4.62 0 001.207 3.33 4.615 4.615 0 003.213 1.492h.603a6.845 6.845 0 005.424-3.014c-.101 1.105 3.717 4.22 8.538 2.411l-2.009 9.141h5.023l2.009-9.04c1.128.403 2.318.607 3.516.602 5.826 0 9.944-4.42 10.145-10.848.101-3.315-1.004-6.831-4.118-7.534m-22.702 10.447a5.026 5.026 0 01-4.42 3.817c-1.105 0-1.708-.502-1.708-1.607a2.006 2.006 0 01.703-1.608c.804-.803 2.311-1.205 4.621-1.205h1.005l-.201.603zm21.597-2.511c-.101 3.314-2.11 6.227-5.525 6.227a7.836 7.836 0 01-2.21-.401l.703-3.918c1.005-5.625 7.333-8.438 7.032-1.909zm5.625 9.944h5.022l1.507-6.63a12.462 12.462 0 012.009-4.922 4.527 4.527 0 013.516-2.11c.904 0 1.306.503 1.306 1.407a5.702 5.702 0 01-.301 1.808l-2.311 10.447h5.023l1.506-6.63a10.831 10.831 0 012.11-4.922 4.518 4.518 0 013.516-2.11 1.246 1.246 0 011.306 1.407 5.675 5.675 0 01-.302 1.808l-1.507 6.83a6.97 6.97 0 00.503 4.923l4.721-1.708a6.019 6.019 0 01-.201-3.515l1.406-6.329a26.31 26.31 0 00.603-3.917c0-2.512-1.708-3.818-4.219-3.818-2.813 0-5.324 2.01-6.831 3.918h-.1a3.547 3.547 0 00-3.918-3.918c-2.712 0-5.223 1.909-6.629 3.818h-.101a8.212 8.212 0 00-.502-4.119l-4.42 1.607a6.263 6.263 0 01.301 3.315l-3.013 13.36z" fill="#F15A22"/><path d="M50.83 10.058c-1.707 0-6.63 0-7.835 5.223l-4.52 20.291h5.826L48.22 17.39c.301-1.305.703-2.51 2.812-2.41h8.237l.904-4.922H50.83z" fill="#F15A22"/><path d="M26.407 15.543l-5.923-9.316.602-1.603 12.75-2.705c.603-.1.904.1.503.701L27.41 15.443c-.301.601-.703.501-1.004.1z" fill="#FDB913"/><path d="M26.809 9.733V2.02c0-.6-.201-1.001-.904-1.102L17.271.016c-.703-.1-.803.4-.803.901l1.004 9.217c0 .4.3.801.803.801h.2l7.631-.4c.502.1.703-.2.703-.802z" fill="#B41E8E"/><path d="M14.66 42.592c1.808 0 3.213 1.402 3.213 3.206 0 1.803-1.405 3.205-3.213 3.205-1.807 0-3.212-1.402-3.212-3.205 0-1.804 1.405-3.206 3.213-3.206zm-7.931-.4c5.02-1.604 10.441-3.206 15.461-4.81.703-.2 1.004-.5 1.004-1.702l.302-12.623 5.722-2.905c.502-.2.703-.902.502-1.402-.2-.501-.903-.702-1.405-.501l-5.623 2.905c-.702.4-1.104 1.102-1.204 1.903l-.1 1.904-20.181 1.602c-.703 0-1.205.702-1.205 1.403 0 .2.1.3.1.5l4.72 12.723a1.591 1.591 0 001.907 1.002zm17.77-4.308c.904 0 1.707.801 1.707 1.703 0 .901-.803 1.703-1.706 1.703-.904 0-1.707-.802-1.707-1.703 0-.902.803-1.703 1.707-1.703z" fill="#50B848"/><path d="M9.841 14.14l-1.405 6.112-6.627 3.105c-.502.2-.502.701-.1.902l5.22 2.905-1.204 8.615c-.1.401.301.702.803.2l6.827-7.012 7.028 1.303c.904.2.803-.401.603-.702l-3.314-6.611 5.12-8.115c.302-.5 0-.901-.501-.701l-8.434 3.406-3.313-3.807c-.301-.4-.602 0-.703.4z" fill="#0072BC"/><path d="M41.367.316l-1.105.602-1.506-.301c-.401-.1-.401 0-.401.3l.2 1.103-1.305 1.1c-.2.2-.1.401.201.401l2.008-.1 1.004 1.102c.2.2.402.1.502-.1l.602-1.403 2.21-.7c.3 0 .3-.301 0-.301l-2.009-.602v-.9c0-.501-.2-.4-.401-.2z" fill="#50B848"/><path d="M5.424 26.263l1.506.801-1.205 8.615c-.1.401.301.702.803.2l6.827-7.012 7.028 1.303c.904.2.803-.401.603-.702l-2.21-4.407-13.352 1.202z" fill="#008C44"/><path d="M26.809 9.733V3.422l-6.325 1.302c-.502.1-.502.701-.302 1.002l3.213 5.009 2.61-.1c.603 0 .804-.3.804-.902z" fill="#6F2C91"/></svg>