<svg width="48" height="60" viewBox="0 0 48 60" fill="none" xmlns="http://www.w3.org/2000/svg">
<path d="M45.6231 52.0028H2.39365C1.07339 52.0028 0 53.0868 0 54.4011V57.6018C0 58.9246 1.08186 60 2.39365 60H45.606C46.9263 60 47.9995 58.916 47.9995 57.6018V54.4011C48.0253 53.0697 46.9434 52.0028 45.6231 52.0028ZM22.3345 47.7098C22.8031 48.1793 23.4164 48.4183 24.0211 48.4183C24.3351 48.4185 24.646 48.356 24.9357 48.2344C25.2253 48.1127 25.4877 47.9344 25.7077 47.7098L42.0795 31.3058C43.008 30.3756 43.008 28.8564 42.0795 27.909L39.8137 25.6387C38.8852 24.7083 37.3689 24.7083 36.4235 25.6387L28.0076 34.0797V2.39835C28.0076 1.07539 26.9257 0 25.614 0H22.4197C21.0994 0 20.026 1.0668 20.026 2.39835V34.0882L11.6017 25.6472C10.6732 24.7169 9.14846 24.7169 8.21147 25.6472L5.94565 27.9174C5.01723 28.8477 5.01723 30.3755 5.94565 31.3143L22.3345 47.7098Z" fill="white"/>
</svg>
