<svg width="30" height="30" viewBox="0 0 30 30" fill="none" xmlns="http://www.w3.org/2000/svg">
<path d="M12.9402 28.1355C12.567 28.1355 12.2635 28.4326 12.2635 28.7979V29.3377C12.2635 29.7029 12.5671 30 12.9402 30H16.7681C17.1412 30 17.4447 29.7029 17.4447 29.3377V28.7979C17.4447 28.4326 17.1411 28.1355 16.7681 28.1355H12.9402ZM11.7859 26.1667C11.4128 26.1667 11.1093 26.4638 11.1093 26.829V27.3688C11.1093 27.734 11.4128 28.0311 11.7859 28.0311H17.9222C18.2953 28.0311 18.5988 27.734 18.5988 27.3688V26.829C18.5988 26.4638 18.2953 26.1667 17.9222 26.1667H11.7859ZM12.2636 16.2611H11.9629C11.5068 16.2611 11.1359 16.6251 11.1359 17.0724C11.1359 17.5197 11.5069 17.8836 11.9629 17.8836H13.0907V17.0724C13.0907 16.6251 12.7197 16.2611 12.2636 16.2611Z" fill="url(#paint0_linear_17_243)"/>
<path d="M20.021 20.8259C21.7549 19.3391 22.7494 17.2055 22.7494 14.9722C22.7494 10.6008 19.3551 7.3043 14.8541 7.3043C10.353 7.3043 6.95881 10.6008 6.95881 14.9722C6.95881 17.2055 7.95323 19.3391 9.68718 20.8259C10.9212 21.884 11.7067 23.3284 11.9787 25.0277H13.0907V19.0226H11.9629C10.8798 19.0226 9.99865 18.1477 9.99865 17.0724C9.99865 15.9971 10.8798 15.1222 11.9629 15.1222C11.9629 15.1222 14.3567 14.9038 14.2278 17.0724V17.8837H15.521V17.0724C15.521 14.9535 17.8045 15.1222 17.8045 15.1222C18.8876 15.1222 19.7687 15.9971 19.7687 17.0724C19.7687 18.1478 18.8876 19.0226 17.8045 19.0226H16.6582V25.0277H17.7295C18.0014 23.3284 18.7869 21.884 20.021 20.8259Z" fill="url(#paint1_linear_17_243)"/>
<path d="M29.1442 13.1746H26.8791C26.7444 13.1745 26.6142 13.1267 26.5115 13.0396C26.4088 12.9525 26.3403 12.8319 26.3183 12.699C26.0823 11.2853 25.4896 9.81881 24.604 8.458C24.5327 8.34843 24.5012 8.21769 24.5149 8.08768C24.5285 7.95766 24.5864 7.83628 24.6789 7.74388L26.2777 6.14694C26.4933 5.93162 26.4302 5.64322 26.3041 5.44807L24.4096 3.49058C24.1942 3.27844 23.9074 3.33985 23.7118 3.46465L22.1508 5.02373C22.0571 5.11733 21.9337 5.17528 21.8019 5.18755C21.6701 5.19981 21.5381 5.16563 21.4288 5.0909C20.185 4.24091 18.7354 3.62685 17.2367 3.31498C17.1086 3.28825 16.9937 3.21823 16.9112 3.11669C16.8287 3.01516 16.7837 2.88831 16.7838 2.75749V0.495158C16.7838 0.198939 16.561 0 16.353 0H13.5961C13.4081 0.0326922 13.1242 0.167705 13.1242 0.495158V2.824C13.1243 2.95876 13.0766 3.08917 12.9895 3.19203C12.9025 3.2949 12.7818 3.36353 12.6488 3.38574C11.2329 3.62148 9.7641 4.21372 8.40131 5.0984C8.29222 5.16925 8.1621 5.20051 8.03273 5.18693C7.90336 5.17335 7.78257 5.11576 7.69057 5.0238L6.0917 3.42685C5.87466 3.21014 5.58414 3.27367 5.38759 3.40039L3.42758 5.29283C3.21664 5.50655 3.27771 5.79104 3.40178 5.98527L4.96272 7.54428C5.05683 7.63832 5.11508 7.76231 5.12739 7.89478C5.13969 8.02725 5.10527 8.15985 5.0301 8.26961C4.1793 9.51159 3.56458 10.959 3.25245 12.4555C3.22583 12.5834 3.15597 12.6983 3.05461 12.7808C2.95325 12.8633 2.82657 12.9084 2.69588 12.9085H0.471882C0.283885 12.9412 0 13.0762 0 13.4037V16.1568C0.0328249 16.3442 0.168302 16.627 0.497346 16.627H2.7624C2.89703 16.627 3.02728 16.6749 3.12996 16.762C3.23265 16.8491 3.30112 16.9697 3.3232 17.1025C3.55914 18.5163 4.15191 19.9828 5.03752 21.3435C5.10883 21.4531 5.1403 21.5839 5.12667 21.7139C5.11304 21.8439 5.05513 21.9653 4.96266 22.0577L3.36372 23.6547C3.14814 23.87 3.21127 24.1584 3.33733 24.3535L5.23189 26.311C5.44727 26.5231 5.73407 26.4616 5.92963 26.3369L7.49063 24.7779C7.58428 24.6843 7.70767 24.6264 7.83949 24.6141C7.97131 24.6018 8.10328 24.636 8.21258 24.7107C8.84885 25.1454 9.54169 25.5194 10.2781 25.8258C10.4295 25.6005 10.6301 25.4125 10.8647 25.276C10.6449 23.8169 9.98804 22.5832 8.94753 21.6911C6.96093 19.9877 5.82154 17.5388 5.82154 14.9724C5.82154 12.5677 6.74495 10.3419 8.42167 8.70482C10.0989 7.06723 12.3833 6.16544 14.8541 6.16544C17.3249 6.16544 19.6092 7.06723 21.2864 8.70469C22.9631 10.3418 23.8865 12.5676 23.8865 14.9722C23.8865 17.5387 22.7471 19.9876 20.7605 21.691C19.7199 22.5832 19.0629 23.8171 18.8433 25.2765C19.0453 25.3944 19.2224 25.5504 19.3648 25.736C20.0271 25.4574 20.6785 25.111 21.3068 24.7031C21.529 24.5589 21.8302 24.5906 22.0175 24.7777L23.6164 26.3747C23.8334 26.5914 24.124 26.5279 24.3205 26.4011L26.2805 24.5088C26.4915 24.2951 26.4304 24.0105 26.3064 23.8163L24.7454 22.2572C24.6513 22.1632 24.5931 22.0392 24.5808 21.9067C24.5685 21.7743 24.6029 21.6417 24.6781 21.5319C25.5289 20.29 26.1436 18.8425 26.4557 17.3461C26.4823 17.2182 26.5522 17.1033 26.6536 17.0208C26.7549 16.9383 26.8816 16.8932 27.0123 16.8931H29.2362C29.4242 16.8604 29.7081 16.7254 29.7081 16.3979V13.6447C29.6836 13.5034 29.5795 13.1746 29.1442 13.1746Z" fill="url(#paint2_linear_17_243)"/>
<path d="M18.6315 17.0724C18.6315 16.6251 18.2605 16.2612 17.8045 16.2612H17.4852C17.0291 16.2612 16.6582 16.6252 16.6582 17.0724V17.8837H17.8045C18.2606 17.8837 18.6315 17.5198 18.6315 17.0724ZM14.2279 19.0226H15.5211V25.0277H14.2279V19.0226Z" fill="url(#paint3_linear_17_243)"/>
<defs>
<linearGradient id="paint0_linear_17_243" x1="0" y1="0" x2="31.4293" y2="1.927" gradientUnits="userSpaceOnUse">
<stop stop-color="#FD7F2B"/>
<stop offset="1" stop-color="#FDB913"/>
</linearGradient>
<linearGradient id="paint1_linear_17_243" x1="0" y1="0" x2="31.4293" y2="1.927" gradientUnits="userSpaceOnUse">
<stop stop-color="#FD7F2B"/>
<stop offset="1" stop-color="#FDB913"/>
</linearGradient>
<linearGradient id="paint2_linear_17_243" x1="0" y1="0" x2="31.4293" y2="1.927" gradientUnits="userSpaceOnUse">
<stop stop-color="#FD7F2B"/>
<stop offset="1" stop-color="#FDB913"/>
</linearGradient>
<linearGradient id="paint3_linear_17_243" x1="0" y1="0" x2="31.4293" y2="1.927" gradientUnits="userSpaceOnUse">
<stop stop-color="#FD7F2B"/>
<stop offset="1" stop-color="#FDB913"/>
</linearGradient>
</defs>
</svg>
