<svg width="29" height="34" viewBox="0 0 29 34" fill="none" xmlns="http://www.w3.org/2000/svg">
<path d="M17.4033 10.7982L13.4991 4.52833L13.8962 3.44964L22.3001 1.62935C22.6971 1.56193 22.8956 1.69676 22.6309 2.10127L18.065 10.7308C17.8665 11.1353 17.6018 11.0679 17.4033 10.7982Z" fill="white"/>
<path d="M17.668 6.88808V1.69688C17.668 1.29238 17.5357 1.0227 17.0725 0.955286L11.3817 0.348521C10.9185 0.281103 10.8523 0.618195 10.8523 0.955286L11.514 7.15775C11.514 7.42743 11.7125 7.6971 12.0434 7.6971H12.1757L17.2048 7.42743C17.5357 7.49485 17.668 7.29259 17.668 6.88808Z" fill="white"/>
<path d="M9.66115 29.0012C10.8522 29.0012 11.7787 29.945 11.7787 31.1586C11.7787 32.3721 10.8522 33.3159 9.66115 33.3159C8.47005 33.3159 7.54364 32.3721 7.54364 31.1586C7.54364 29.945 8.47005 29.0012 9.66115 29.0012ZM4.43354 28.7315C7.74215 27.6528 11.3155 26.5741 14.6241 25.4954C15.0873 25.3606 15.2858 25.1583 15.2858 24.3493L15.4843 15.8546L19.2561 13.8995C19.587 13.7647 19.7193 13.2927 19.587 12.9557C19.4546 12.6186 18.9914 12.4837 18.6606 12.6186L14.9549 14.5737C14.4917 14.8434 14.227 15.3153 14.1609 15.8546L14.0947 17.1356L0.794067 18.2143C0.330861 18.2143 0 18.6862 0 19.1581C0 19.293 0.0661719 19.3604 0.0661719 19.4952L3.17627 28.0573C3.37478 28.5967 3.90416 28.8663 4.43354 28.7315ZM16.146 25.8325C16.7416 25.8325 17.271 26.3719 17.271 26.9786C17.271 27.5854 16.7416 28.1247 16.146 28.1247C15.5505 28.1247 15.0211 27.5854 15.0211 26.9786C15.0211 26.3719 15.5505 25.8325 16.146 25.8325Z" fill="white"/>
<path d="M6.48485 9.85452L5.55844 13.967L1.19107 16.057C0.860207 16.1918 0.860207 16.5289 1.1249 16.6638L4.56585 18.6189L3.77179 24.4168C3.70561 24.6865 3.9703 24.8888 4.30116 24.5517L8.80088 19.8324L13.4329 20.7088C14.0285 20.8437 13.9623 20.4392 13.83 20.2369L11.6463 15.7873L15.0211 10.3264C15.2196 9.98935 15.0211 9.71968 14.6902 9.85452L9.13174 12.1467L6.94805 9.58485C6.74954 9.31517 6.55102 9.58485 6.48485 9.85452Z" fill="white"/>
<path d="M27.263 0.550658L26.5351 0.955171L25.5425 0.752914C25.2778 0.685496 25.2778 0.752916 25.2778 0.955171L25.4102 1.69677L24.5499 2.43837C24.4176 2.5732 24.4838 2.70804 24.6823 2.70804L26.0057 2.64062L26.6674 3.38222C26.7998 3.51706 26.9321 3.44964 26.9983 3.31481L27.3953 2.37095L28.8511 1.89902C29.0496 1.89902 29.0496 1.69677 28.8511 1.69677L27.5277 1.29226V0.685497C27.5277 0.348406 27.3953 0.415821 27.263 0.550658Z" fill="white"/>
<path d="M3.57336 18.0121L4.56595 18.5515L3.77188 24.3494C3.70571 24.6191 3.9704 24.8214 4.30126 24.4843L8.80097 19.765L13.433 20.6415C14.0286 20.7763 13.9624 20.3718 13.8301 20.1695L12.3743 17.2031L3.57336 18.0121Z" fill="#D09EE9"/>
<path d="M17.6679 6.88797V2.64062L13.4991 3.51706C13.1682 3.58448 13.1682 3.98899 13.3006 4.19124L15.4181 7.56215L17.1386 7.49473C17.5356 7.49473 17.6679 7.29247 17.6679 6.88797Z" fill="#D09EE9"/>
</svg>
