<svg width="26" height="30" viewBox="0 0 26 30" fill="none" xmlns="http://www.w3.org/2000/svg">
<path fill-rule="evenodd" clip-rule="evenodd" d="M3.69428 3.69427C6.05828 1.33027 9.26412 0.0015186 12.6073 0C15.9505 0.0015186 19.1564 1.33027 21.5204 3.69427C23.8844 6.05828 25.2131 9.26412 25.2146 12.6073C24.9783 15.1743 24.0795 17.6359 22.6061 19.7511C20.0483 23.6129 17.0994 26.2553 13.8062 29.5126C13.4854 29.8251 13.0552 30 12.6073 30C12.1594 30 11.7293 29.8251 11.4085 29.5126C8.11521 26.2553 5.16634 23.6129 2.60857 19.7511C1.13516 17.6359 0.236305 15.1743 0 12.6073C0.0015186 9.26412 1.33027 6.05828 3.69428 3.69427ZM9.98811 10.0371L10.9156 6.04363C10.9819 5.78176 11.1806 5.51989 11.3794 5.78176L13.5657 8.26951L19.1308 6.04363C19.462 5.9127 19.6608 6.17456 19.462 6.5019L16.0832 11.8047L18.2695 16.1255C18.402 16.3219 18.4683 16.7147 17.872 16.5838L13.2344 15.7327L8.72934 20.3154C8.39808 20.6428 8.13307 20.4464 8.19933 20.1845L8.99434 14.5543L5.54927 12.6558C5.28427 12.5249 5.28427 12.1975 5.61553 12.0666L9.98811 10.0371Z" fill="url(#paint0_linear_16_408)"/>
<defs>
<linearGradient id="paint0_linear_16_408" x1="0" y1="0" x2="26.7035" y2="1.38961" gradientUnits="userSpaceOnUse">
<stop stop-color="#FD7F2B"/>
<stop offset="1" stop-color="#FDB913"/>
</linearGradient>
</defs>
</svg>
