<svg width="23" height="23" viewBox="0 0 23 23" fill="none" xmlns="http://www.w3.org/2000/svg">
<path d="M19.5938 15.4529C18.1636 14.3058 16.7122 13.6109 15.2995 14.7563L14.4559 15.4486C13.8388 15.9511 12.6913 18.2991 8.25461 13.513C3.81889 8.73288 6.45852 7.98862 7.07662 7.49042L7.92478 6.79728C9.33006 5.64926 8.79973 4.20405 7.78619 2.71639L7.17456 1.8153C6.1564 0.331103 5.0477 -0.643632 3.63873 0.502656L2.87742 1.12649C2.2547 1.5519 0.514037 2.93473 0.0918073 5.56175C-0.416347 8.71382 1.18665 12.3234 4.85922 16.2838C8.52717 20.246 12.1184 22.2362 15.5203 22.2016C18.3475 22.173 20.0549 20.7503 20.5889 20.233L21.353 19.6083C22.7583 18.4629 21.8852 17.2967 20.454 16.1469L19.5938 15.4529Z" fill="url(#paint0_linear_74_1416)"/>
<defs>
<linearGradient id="paint0_linear_74_1416" x1="0" y1="0" x2="22.0867" y2="0.0214361" gradientUnits="userSpaceOnUse">
<stop stop-color="#6F2C91"/>
<stop offset="1" stop-color="#B41E8E"/>
</linearGradient>
</defs>
</svg>
