<svg width="30" height="32" viewBox="0 0 30 32" fill="none" xmlns="http://www.w3.org/2000/svg">
<path d="M29.2134 22.8077L25.018 18.4707C23.5196 16.9218 20.9724 17.5415 20.3731 19.555C19.9236 20.9491 18.4252 21.7235 17.0767 21.4137C14.08 20.6392 10.0344 16.612 9.2852 13.3593C8.8357 11.9653 9.73471 10.4164 11.0832 9.95174C13.0311 9.33218 13.6305 6.69903 12.1321 5.15012L7.93668 0.813177C6.73799 -0.271059 4.93996 -0.271059 3.8911 0.813177L1.04422 3.7561C-1.80267 6.85392 1.34389 15.0631 8.38619 22.343C15.4285 29.6229 23.3698 33.0305 26.3665 29.9327L29.2134 26.9897C30.2623 25.7506 30.2623 23.8919 29.2134 22.8077Z" fill="white"/>
</svg>
