<svg width="28" height="27" viewBox="0 0 28 27" fill="none" xmlns="http://www.w3.org/2000/svg">
<path fill-rule="evenodd" clip-rule="evenodd" d="M26.6364 2.65306H22.1818V8.42857H24.25C25.2443 8.42927 26.1977 8.81384 26.9009 9.49781C27.604 10.1818 27.9993 11.1092 28 12.0765V23.352C27.9993 24.3193 27.604 25.2468 26.9009 25.9308C26.1977 26.6147 25.2443 26.9993 24.25 27H3.75C2.75566 26.9993 1.80225 26.6147 1.09915 25.9308C0.396042 25.2468 0.000722368 24.3193 0 23.352V12.0765C0.000722368 11.1092 0.396042 10.1818 1.09915 9.49781C1.80225 8.81384 2.75566 8.42927 3.75 8.42857H5.81818V2.65306H1.36367C1.00201 2.65306 0.655167 2.5133 0.399435 2.26453C0.143704 2.01576 3.55244e-05 1.67835 3.55244e-05 1.32653C3.55244e-05 0.974713 0.143704 0.637304 0.399435 0.388532C0.655167 0.139759 1.00201 0 1.36367 0L26.6364 0C26.998 0 27.3449 0.139759 27.6006 0.388532C27.8563 0.637304 28 0.974713 28 1.32653C28 1.67835 27.8563 2.01576 27.6006 2.26453C27.3449 2.5133 26.998 2.65306 26.6364 2.65306ZM8.54545 8.42857H19.4545V2.65306H8.54545V8.42857Z" fill="url(#paint0_linear_17_206)"/>
<defs>
<linearGradient id="paint0_linear_17_206" x1="0" y1="0" x2="29.6115" y2="1.90129" gradientUnits="userSpaceOnUse">
<stop stop-color="#FD7F2B"/>
<stop offset="1" stop-color="#FDB913"/>
</linearGradient>
</defs>
</svg>
