<svg width="26" height="26" viewBox="0 0 26 26" fill="none" xmlns="http://www.w3.org/2000/svg">
<path d="M12.0093 15.0145L11.0297 14.0348C10.6283 13.6335 9.9728 13.6335 9.56399 14.0348L3.49852 20.1076V14.9518C3.49852 14.381 3.03084 13.917 2.46365 13.917H1.08265C0.511853 13.917 0.0478298 14.3847 0.0478298 14.9518V24.9652C0.0478298 25.2524 0.16197 25.5102 0.353472 25.6943C0.544974 25.8859 0.802765 26 1.08265 26H11.096C11.6668 26 12.1308 25.5323 12.1308 24.9652V23.5841C12.1308 23.0133 11.6631 22.5493 11.096 22.5493H5.94019L12.0093 16.4802C12.4144 16.0714 12.4144 15.4159 12.0093 15.0145ZM25.6465 0.30569C25.455 0.114189 25.1971 0 24.9173 0H14.904C14.3332 0 13.8691 0.467682 13.8691 1.03487V2.41592C13.8691 2.98672 14.3369 3.45079 14.904 3.45079H20.0598L13.9833 9.51616C13.5818 9.91761 13.5818 10.5768 13.9833 10.9819L14.9629 11.9615C15.3644 12.3629 16.0235 12.3629 16.4286 11.9615L22.5014 5.89236V11.0482C22.5014 11.619 22.9692 12.083 23.5362 12.083H24.9173C25.4881 12.083 25.9522 11.6153 25.9522 11.0482V1.03853C25.9484 0.747569 25.8306 0.489779 25.6465 0.30569Z" fill="url(#paint0_linear_16_379)"/>
<path d="M15.0145 13.9907L14.0348 14.9703C13.6335 15.3717 13.6335 16.0272 14.0348 16.436L20.1076 22.5015H14.9518C14.381 22.5015 13.917 22.9692 13.917 23.5364V24.9174C13.917 25.4881 14.3847 25.9522 14.9518 25.9522H24.9652C25.2524 25.9522 25.5102 25.838 25.6943 25.6465C25.8859 25.455 26 25.1972 26 24.9173V14.904C26 14.3332 25.5323 13.8692 24.9652 13.8692H23.5841C23.0133 13.8692 22.5493 14.3369 22.5493 14.904L22.5493 20.0598L16.4802 13.9907C16.0714 13.5856 15.4159 13.5856 15.0145 13.9907ZM0.30569 0.353519C0.114189 0.545021 -1.22343e-08 0.802858 0 1.08274L4.37693e-07 11.096C4.62644e-07 11.6668 0.467683 12.1309 1.03487 12.1309H2.41592C2.98672 12.1309 3.45079 11.6631 3.45079 11.096L3.45079 5.94019L9.51616 12.0167C9.91761 12.4182 10.5768 12.4182 10.9819 12.0167L11.9615 11.0371C12.3629 10.6356 12.3629 9.97646 11.9615 9.5714L5.89236 3.49861H11.0482C11.619 3.49861 12.083 3.03083 12.083 2.46379V1.08274C12.083 0.511946 11.6153 0.0478267 11.0482 0.0478267L1.03853 0.0478272C0.747569 0.0515821 0.489778 0.169431 0.30569 0.353519Z" fill="url(#paint1_linear_16_379)"/>
<defs>
<linearGradient id="paint0_linear_16_379" x1="0" y1="0" x2="27.5043" y2="1.70292" gradientUnits="userSpaceOnUse">
<stop stop-color="#FD7F2B"/>
<stop offset="1" stop-color="#FDB913"/>
</linearGradient>
<linearGradient id="paint1_linear_16_379" x1="0" y1="0" x2="27.5043" y2="1.70292" gradientUnits="userSpaceOnUse">
<stop stop-color="#FD7F2B"/>
<stop offset="1" stop-color="#FDB913"/>
</linearGradient>
</defs>
</svg>
