<?xml version="1.0" encoding="utf-8"?><svg viewBox="0 0 48 72" xmlns="http://www.w3.org/2000/svg" xmlns:xlink="http://www.w3.org/1999/xlink"><style>:root>svg{display:none}:root>svg:target{display:block}</style><svg fill="none" viewBox="0 0 40 72" id="arrow-slider" xmlns="http://www.w3.org/2000/svg"><path d="M6.842 1.174a4.007 4.007 0 1 0-5.668 5.67L30.324 36 1.174 65.156a4.01 4.01 0 0 0 5.668 5.67l31.984-31.991a4.011 4.011 0 0 0 0-5.67L6.842 1.175Z" fill="url(#ba)"/><defs><linearGradient id="ba" x1="0" y1="0" x2="40.039" y2=".022" gradientUnits="userSpaceOnUse"><stop stop-color="#B41E8E"/><stop offset="1" stop-color="#6F2C91"/></linearGradient></defs></svg><svg fill="none" viewBox="0 0 40 72" id="arrow-slider-disabled" xmlns="http://www.w3.org/2000/svg"><path d="M6.842 1.174a4.007 4.007 0 1 0-5.668 5.67L30.324 36 1.174 65.156a4.01 4.01 0 0 0 5.668 5.67l31.984-31.991a4.011 4.011 0 0 0 0-5.67L6.842 1.175Z" fill="#D09EE9"/></svg><svg fill="none" viewBox="0 0 48 60" id="download-purple" xmlns="http://www.w3.org/2000/svg"><path d="M45.623 52.003H2.393A2.404 2.404 0 0 0 0 54.4v3.2A2.404 2.404 0 0 0 2.394 60h43.212a2.403 2.403 0 0 0 2.393-2.398v-3.2c.026-1.332-1.056-2.4-2.376-2.4ZM22.335 47.71a2.36 2.36 0 0 0 3.373 0L42.08 31.306c.928-.93.928-2.45 0-3.397l-2.266-2.27c-.929-.93-2.445-.93-3.39 0l-8.416 8.44V2.4A2.404 2.404 0 0 0 25.614 0H22.42a2.393 2.393 0 0 0-2.394 2.398v31.69l-8.424-8.44a2.408 2.408 0 0 0-3.39 0l-2.266 2.27a2.42 2.42 0 0 0 0 3.396L22.334 47.71Z" fill="url(#ca)"/><defs><linearGradient id="ca" x1="0" y1="0" x2="48.047" y2=".038" gradientUnits="userSpaceOnUse"><stop stop-color="#6F2C91"/><stop offset="1" stop-color="#B41E8E"/></linearGradient></defs></svg><svg fill="none" viewBox="0 0 48 60" id="download-white" xmlns="http://www.w3.org/2000/svg"><path d="M45.623 52.003H2.393A2.404 2.404 0 0 0 0 54.4v3.2A2.404 2.404 0 0 0 2.394 60h43.212a2.403 2.403 0 0 0 2.393-2.398v-3.2c.026-1.332-1.056-2.4-2.376-2.4ZM22.335 47.71a2.36 2.36 0 0 0 3.373 0L42.08 31.306c.928-.93.928-2.45 0-3.397l-2.266-2.27c-.929-.93-2.445-.93-3.39 0l-8.416 8.44V2.4A2.404 2.404 0 0 0 25.614 0H22.42a2.393 2.393 0 0 0-2.394 2.398v31.69l-8.424-8.44a2.408 2.408 0 0 0-3.39 0l-2.266 2.27a2.42 2.42 0 0 0 0 3.396L22.334 47.71Z" fill="#fff"/></svg><svg fill="none" viewBox="0 0 30 24" id="email-white" xmlns="http://www.w3.org/2000/svg"><path d="M14.132 15.926c.284.183.602.257.886.257.283 0 .602-.074.885-.257L30 7.03v11.826c0 2.527-1.983 4.577-4.427 4.577H4.427C1.983 23.432 0 21.382 0 18.855V7.03l14.132 8.897Z" fill="#fff"/><path d="M4.427.585h21.146c2.09 0 3.86 1.538 4.285 3.589l-14.876 9.373L.142 4.174C.567 2.124 2.338.585 4.427.585Z" fill="#fff"/></svg><svg fill="none" viewBox="0 0 30 30" id="equipment" xmlns="http://www.w3.org/2000/svg"><path d="M12.94 28.136a.67.67 0 0 0-.676.662v.54a.67.67 0 0 0 .676.662h3.828a.67.67 0 0 0 .677-.662v-.54a.67.67 0 0 0-.677-.662H12.94Zm-1.154-1.97a.67.67 0 0 0-.677.663v.54a.67.67 0 0 0 .677.662h6.136a.67.67 0 0 0 .677-.662v-.54a.67.67 0 0 0-.677-.662h-6.136Zm.478-9.905h-.301a.82.82 0 0 0-.827.811.82.82 0 0 0 .827.812h1.128v-.812a.82.82 0 0 0-.827-.81Z" fill="url(#fa)"/><path d="M20.021 20.826c1.734-1.487 2.728-3.62 2.728-5.854 0-4.371-3.394-7.668-7.895-7.668-4.501 0-7.895 3.297-7.895 7.668 0 2.234.994 4.367 2.728 5.854 1.234 1.058 2.02 2.502 2.292 4.202h1.112v-6.005h-1.128a1.96 1.96 0 0 1-1.964-1.95 1.96 1.96 0 0 1 1.964-1.95s2.394-.22 2.265 1.95v.81h1.293v-.81c0-2.12 2.284-1.95 2.284-1.95a1.96 1.96 0 0 1 1.964 1.95 1.96 1.96 0 0 1-1.964 1.95h-1.147v6.005h1.072c.271-1.7 1.057-3.144 2.291-4.202Z" fill="url(#fb)"/><path d="M29.144 13.175H26.88a.569.569 0 0 1-.56-.476c-.237-1.414-.83-2.88-1.715-4.241a.57.57 0 0 1 .075-.714l1.599-1.597c.215-.215.152-.504.026-.699L24.41 3.491c-.216-.213-.503-.151-.698-.026L22.15 5.024a.568.568 0 0 1-.722.067 11.725 11.725 0 0 0-4.192-1.776.57.57 0 0 1-.453-.558V.495C16.784.2 16.56 0 16.353 0h-2.757c-.188.033-.472.168-.472.495v2.329a.569.569 0 0 1-.475.562c-1.416.235-2.885.828-4.248 1.712a.568.568 0 0 1-.71-.074l-1.6-1.597c-.216-.217-.507-.153-.703-.027l-1.96 1.893c-.211.214-.15.498-.026.692l1.56 1.56a.57.57 0 0 1 .068.725 11.692 11.692 0 0 0-1.778 4.186.569.569 0 0 1-.556.453H.472c-.188.032-.472.167-.472.495v2.753c.033.187.168.47.497.47h2.265a.568.568 0 0 1 .561.476c.236 1.413.829 2.88 1.715 4.24a.57.57 0 0 1-.075.715l-1.6 1.597c-.215.215-.152.503-.026.698l1.895 1.958c.215.212.502.15.698.026l1.56-1.56a.568.568 0 0 1 .723-.066c.636.434 1.329.808 2.065 1.115.152-.226.352-.413.587-.55-.22-1.46-.877-2.693-1.917-3.585-1.987-1.703-3.126-4.152-3.126-6.719 0-2.404.923-4.63 2.6-6.267 1.677-1.638 3.961-2.54 6.432-2.54 2.47 0 4.755.902 6.432 2.54 1.677 1.637 2.6 3.863 2.6 6.267 0 2.567-1.139 5.016-3.125 6.719-1.041.892-1.698 2.126-1.918 3.585.202.118.38.274.522.46a12.417 12.417 0 0 0 1.942-1.033.573.573 0 0 1 .71.075l1.6 1.597c.216.216.507.153.703.026l1.96-1.892c.211-.214.15-.498.026-.693l-1.56-1.559a.57.57 0 0 1-.068-.725 11.691 11.691 0 0 0 1.778-4.186.569.569 0 0 1 .556-.453h2.224c.188-.033.472-.168.472-.495v-2.753c-.024-.142-.128-.47-.564-.47Z" fill="url(#fc)"/><path d="M18.631 17.072a.82.82 0 0 0-.826-.81h-.32a.82.82 0 0 0-.827.81v.812h1.146a.82.82 0 0 0 .828-.812Zm-4.403 1.95h1.293v6.006h-1.293v-6.005Z" fill="url(#fd)"/><defs><linearGradient id="fa" x1="0" y1="0" x2="31.429" y2="1.927" gradientUnits="userSpaceOnUse"><stop stop-color="#FD7F2B"/><stop offset="1" stop-color="#FDB913"/></linearGradient><linearGradient id="fb" x1="0" y1="0" x2="31.429" y2="1.927" gradientUnits="userSpaceOnUse"><stop stop-color="#FD7F2B"/><stop offset="1" stop-color="#FDB913"/></linearGradient><linearGradient id="fc" x1="0" y1="0" x2="31.429" y2="1.927" gradientUnits="userSpaceOnUse"><stop stop-color="#FD7F2B"/><stop offset="1" stop-color="#FDB913"/></linearGradient><linearGradient id="fd" x1="0" y1="0" x2="31.429" y2="1.927" gradientUnits="userSpaceOnUse"><stop stop-color="#FD7F2B"/><stop offset="1" stop-color="#FDB913"/></linearGradient></defs></svg><svg fill="none" viewBox="0 0 29 34" id="galamart-white" xmlns="http://www.w3.org/2000/svg"><path d="M17.403 10.798 13.5 4.528l.397-1.078L22.3 1.63c.397-.068.596.067.33.471l-4.565 8.63c-.199.404-.463.337-.662.067Z" fill="#fff"/><path d="M17.668 6.888V1.697c0-.405-.132-.674-.595-.742L11.382.35c-.463-.068-.53.27-.53.606l.662 6.203c0 .27.199.54.53.54h.132l5.029-.27c.33.067.463-.135.463-.54ZM9.661 29.001c1.191 0 2.118.944 2.118 2.158 0 1.213-.927 2.157-2.118 2.157-1.19 0-2.117-.944-2.117-2.157C7.544 29.945 8.47 29 9.66 29Zm-5.227-.27c3.308-1.078 6.881-2.157 10.19-3.236.463-.134.662-.337.662-1.146l.198-8.494 3.772-1.956c.331-.134.463-.606.331-.943-.132-.337-.596-.472-.926-.337l-3.706 1.955c-.463.27-.728.741-.794 1.28l-.066 1.282-13.3 1.078c-.464 0-.795.472-.795.944 0 .135.066.202.066.337l3.11 8.562c.199.54.728.81 1.258.675Zm11.712-2.899c.596 0 1.125.54 1.125 1.147 0 .606-.53 1.146-1.125 1.146-.596 0-1.125-.54-1.125-1.146 0-.607.53-1.146 1.125-1.146Z" fill="#fff"/><path d="m6.485 9.855-.927 4.112-4.367 2.09c-.33.135-.33.472-.066.607l3.44 1.955-.793 5.798c-.066.27.198.472.53.135l4.499-4.72 4.632.877c.595.135.53-.27.397-.472l-2.184-4.45 3.375-5.46c.199-.338 0-.607-.33-.472l-5.56 2.292-2.183-2.562c-.198-.27-.397 0-.463.27ZM27.263.55l-.728.405-.992-.202c-.265-.068-.265 0-.265.202l.132.742-.86.741c-.132.135-.066.27.132.27l1.324-.067.661.741c.133.135.265.068.331-.067l.397-.944 1.456-.472c.199 0 .199-.202 0-.202l-1.323-.405V.685c0-.337-.133-.27-.265-.134Z" fill="#fff"/><path d="m3.573 18.012.993.54-.794 5.797c-.066.27.198.472.53.135L8.8 19.765l4.632.877c.596.134.53-.27.397-.473l-1.456-2.966-8.8.81ZM17.668 6.888V2.641l-4.169.876c-.33.067-.33.472-.198.674l2.117 3.371 1.72-.067c.398 0 .53-.203.53-.607Z" fill="#D09EE9"/></svg><svg fill="none" viewBox="0 0 26 30" id="layout" xmlns="http://www.w3.org/2000/svg"><path fill-rule="evenodd" clip-rule="evenodd" d="M3.694 3.694A12.613 12.613 0 0 1 12.607 0a12.613 12.613 0 0 1 12.608 12.607 14.886 14.886 0 0 1-2.609 7.144c-2.558 3.862-5.507 6.504-8.8 9.762a1.718 1.718 0 0 1-2.397 0c-3.294-3.258-6.243-5.9-8.8-9.762A14.886 14.886 0 0 1 0 12.607a12.613 12.613 0 0 1 3.694-8.913Zm6.294 6.343.928-3.993c.066-.262.265-.524.463-.262l2.187 2.488 5.565-2.226c.331-.131.53.13.331.458l-3.379 5.303 2.187 4.32c.132.197.198.59-.398.459l-4.638-.851-4.505 4.582c-.33.328-.596.131-.53-.13l.795-5.63-3.445-1.9c-.265-.13-.265-.457.067-.588l4.372-2.03Z" fill="url(#ha)"/><defs><linearGradient id="ha" x1="0" y1="0" x2="26.703" y2="1.39" gradientUnits="userSpaceOnUse"><stop stop-color="#FD7F2B"/><stop offset="1" stop-color="#FDB913"/></linearGradient></defs></svg><svg fill="none" viewBox="0 0 23 23" id="phone" xmlns="http://www.w3.org/2000/svg"><path d="M19.594 15.453c-1.43-1.147-2.882-1.842-4.295-.697l-.843.693c-.617.502-1.765 2.85-6.201-1.936-4.436-4.78-1.796-5.524-1.178-6.023l.848-.693c1.405-1.148.875-2.593-.139-4.08l-.611-.902C6.156.331 5.048-.644 3.639.503l-.762.623A6.672 6.672 0 0 0 .092 5.562c-.508 3.152 1.095 6.761 4.767 10.722 3.668 3.962 7.26 5.952 10.661 5.918 2.828-.029 4.535-1.452 5.069-1.969l.764-.625c1.405-1.145.532-2.311-.899-3.461l-.86-.694Z" fill="url(#ja)"/><defs><linearGradient id="ja" x1="0" y1="0" x2="22.087" y2=".021" gradientUnits="userSpaceOnUse"><stop stop-color="#6F2C91"/><stop offset="1" stop-color="#B41E8E"/></linearGradient></defs></svg><svg fill="none" viewBox="0 0 30 32" id="phone-white" xmlns="http://www.w3.org/2000/svg"><path d="m29.213 22.808-4.195-4.337c-1.498-1.55-4.046-.93-4.645 1.084-.45 1.394-1.948 2.169-3.296 1.859-2.997-.775-7.043-4.802-7.792-8.055-.45-1.394.45-2.943 1.798-3.407 1.948-.62 2.547-3.253 1.05-4.802L7.936.813C6.738-.27 4.94-.27 3.89.813L1.044 3.756c-2.847 3.098.3 11.307 7.342 18.587 7.043 7.28 14.984 10.688 17.98 7.59l2.847-2.943c1.05-1.24 1.05-3.098 0-4.182Z" fill="#fff"/></svg><svg fill="none" viewBox="0 0 28 27" id="signboard" xmlns="http://www.w3.org/2000/svg"><path fill-rule="evenodd" clip-rule="evenodd" d="M26.636 2.653h-4.454V8.43h2.068c.994 0 1.948.385 2.65 1.069a3.6 3.6 0 0 1 1.1 2.579v11.275c0 .967-.396 1.895-1.1 2.579A3.807 3.807 0 0 1 24.25 27H3.75a3.807 3.807 0 0 1-2.65-1.07A3.601 3.601 0 0 1 0 23.353V12.076a3.6 3.6 0 0 1 1.1-2.578 3.807 3.807 0 0 1 2.65-1.07h2.068V2.654H1.364c-.362 0-.709-.14-.965-.388A1.308 1.308 0 0 1 0 1.327C0 .975.144.637.4.389.654.139 1.001 0 1.363 0h25.272c.362 0 .709.14.965.389.255.248.399.586.399.938 0 .351-.144.689-.4.938a1.383 1.383 0 0 1-.964.388ZM8.546 8.43h10.909V2.653H8.544V8.43Z" fill="url(#ka)"/><defs><linearGradient id="ka" x1="0" y1="0" x2="29.611" y2="1.901" gradientUnits="userSpaceOnUse"><stop stop-color="#FD7F2B"/><stop offset="1" stop-color="#FDB913"/></linearGradient></defs></svg><svg fill="none" viewBox="0 0 26 26" id="square" xmlns="http://www.w3.org/2000/svg"><path d="m12.01 15.014-.98-.98a1.043 1.043 0 0 0-1.466 0l-6.065 6.074v-5.156c0-.571-.468-1.035-1.035-1.035H1.083c-.571 0-1.035.468-1.035 1.035v10.013c0 .287.114.545.305.73.192.19.45.305.73.305h10.013c.57 0 1.035-.468 1.035-1.035v-1.38c0-.572-.468-1.036-1.035-1.036H5.94l6.07-6.069a1.036 1.036 0 0 0 0-1.466ZM25.645.306A1.028 1.028 0 0 0 24.918 0H14.904c-.57 0-1.035.468-1.035 1.035v1.38c0 .572.468 1.036 1.035 1.036h5.156l-6.077 6.065a1.042 1.042 0 0 0 0 1.466l.98.98c.401.4 1.06.4 1.466 0l6.072-6.07v5.156c0 .571.468 1.035 1.035 1.035h1.381c.571 0 1.035-.468 1.035-1.035V1.038a1.05 1.05 0 0 0-.306-.732Z" fill="url(#la)"/><path d="m15.014 13.99-.98.98a1.043 1.043 0 0 0 0 1.466l6.074 6.066h-5.156c-.571 0-1.035.467-1.035 1.034v1.381c0 .571.468 1.035 1.035 1.035h10.013c.287 0 .545-.114.73-.306.19-.191.305-.449.305-.729V14.904c0-.57-.468-1.035-1.035-1.035h-1.38c-.572 0-1.036.468-1.036 1.035v5.156l-6.069-6.07a1.036 1.036 0 0 0-1.466 0ZM.306.355C.114.545 0 .803 0 1.083v10.013c0 .57.468 1.035 1.035 1.035h1.38c.572 0 1.036-.468 1.036-1.035V5.94l6.065 6.077c.402.401 1.06.401 1.466 0l.98-.98a1.043 1.043 0 0 0 0-1.466L5.891 3.5h5.156c.571 0 1.035-.468 1.035-1.035V1.083c0-.571-.468-1.035-1.035-1.035H1.038a1.05 1.05 0 0 0-.732.306Z" fill="url(#lb)"/><defs><linearGradient id="la" x1="0" y1="0" x2="27.504" y2="1.703" gradientUnits="userSpaceOnUse"><stop stop-color="#FD7F2B"/><stop offset="1" stop-color="#FDB913"/></linearGradient><linearGradient id="lb" x1="0" y1="0" x2="27.504" y2="1.703" gradientUnits="userSpaceOnUse"><stop stop-color="#FD7F2B"/><stop offset="1" stop-color="#FDB913"/></linearGradient></defs></svg><svg fill="none" viewBox="0 0 22 28" id="star-white" xmlns="http://www.w3.org/2000/svg"><path d="m8.422 5.733-1.406 6.11L.39 14.95c-.502.2-.502.701-.1.902l5.22 2.905-1.204 8.615c-.1.4.3.701.803.2l6.827-7.012 7.028 1.302c.904.2.803-.4.602-.7l-3.313-6.613 5.12-8.114c.302-.5 0-.902-.502-.701l-8.433 3.406-3.313-3.807c-.301-.4-.603 0-.703.4Z" fill="#fff"/></svg><svg fill="none" viewBox="0 0 22 28" id="star-yellow" xmlns="http://www.w3.org/2000/svg"><path d="m8.422 5.733-1.406 6.11L.39 14.95c-.502.2-.502.701-.1.902l5.22 2.905-1.204 8.615c-.1.4.3.701.803.2l6.827-7.012 7.028 1.302c.904.2.803-.4.602-.7l-3.313-6.613 5.12-8.114c.302-.5 0-.902-.502-.701l-8.433 3.406-3.313-3.807c-.301-.4-.603 0-.703.4Z" fill="#FDB913"/></svg><svg fill="none" viewBox="0 0 30 27" id="telegram-white" xmlns="http://www.w3.org/2000/svg"><path d="m11.771 17.495-.496 7.216c.71 0 1.018-.316 1.386-.694l3.33-3.289 6.897 5.222c1.265.729 2.156.345 2.497-1.203l4.528-21.93.001-.002C30.315.882 29.238.125 28.005.6L1.393 11.133c-1.817.728-1.789 1.775-.309 2.25l6.804 2.187L23.692 5.348c.743-.51 1.42-.228.863.281L11.771 17.495Z" fill="#fff"/></svg></svg>