<svg width="200" height="50" viewBox="0 0 200 50" fill="none" xmlns="http://www.w3.org/2000/svg">
<path d="M87.2941 28.5406L89.6045 18.0937C87.8274 17.6625 86.0085 17.4267 84.1801 17.3905C81.2671 17.3905 79.1576 18.0937 77.5504 20.0023C74.8382 23.1162 74.0346 27.737 72.6283 30.0473C72.0256 31.0519 68.8111 31.6546 67.9071 31.2528C68.0299 30.4736 68.1976 29.7022 68.4093 28.9424L68.9116 26.9334C69.2104 25.6444 69.4118 24.3349 69.5143 23.0158C69.5143 18.395 65.5967 17.491 62.4827 17.491C60.1999 17.5018 57.9436 17.9805 55.853 18.8973L56.5561 22.4131C58.1363 21.7027 59.8463 21.3266 61.5787 21.3081C63.8891 21.3081 64.5922 22.2122 64.5922 23.518C64.5975 23.7893 64.5637 24.06 64.4918 24.3216H62.7841C59.5697 24.3216 56.6566 24.9243 54.748 26.632C54.1018 27.2082 53.5943 27.9233 53.2638 28.7235C52.9333 29.5238 52.7882 30.3885 52.8395 31.2528C52.8111 31.86 52.9032 32.4669 53.1103 33.0384C53.3175 33.6099 53.6356 34.1349 54.0464 34.583C54.4571 35.0311 54.9525 35.3936 55.5039 35.6496C56.0553 35.9055 56.6519 36.0499 57.2593 36.0744H57.862C58.9395 36.0344 59.9924 35.7406 60.9349 35.217C61.8775 34.6933 62.6831 33.9546 63.2863 33.0609C63.5877 35.2708 65.3958 36.1749 67.6057 36.0744C70.5188 35.9739 75.4409 35.0699 76.9477 31.755C78.354 28.8419 79.3585 25.5271 80.9657 23.1162C81.2228 22.681 81.5907 22.3216 82.0318 22.0745C82.4729 21.8275 82.9715 21.7017 83.477 21.7099H83.9792L82.372 28.8419C81.744 31.39 82.1029 34.0813 83.3765 36.3758L87.9973 34.6681C87.0036 32.7828 86.7873 30.5834 87.3946 28.5406M63.6882 28.0383C63.4413 29.0559 62.8825 29.9709 62.09 30.6553C61.2976 31.3397 60.311 31.7593 59.2683 31.8555C58.1634 31.8555 57.5606 31.3532 57.5606 30.2482C57.5487 29.9446 57.6057 29.6422 57.7275 29.3638C57.8493 29.0854 58.0327 28.8383 58.2638 28.641C59.0674 27.8374 60.5742 27.4356 62.8845 27.4356H63.8891L63.6882 28.0383ZM129.885 28.5406L132.196 17.8928H127.474L122.653 23.6185C121.831 24.4861 121.091 25.4276 120.443 26.4311H120.242C119.252 23.528 118.112 20.6781 116.827 17.8928H112.909C112.005 22.5135 111.001 27.4356 109.795 29.6455C109.192 30.851 105.878 31.9559 104.672 31.5541C104.791 30.6749 104.959 29.803 105.174 28.9424L105.677 26.9334C105.975 25.6444 106.177 24.3349 106.279 23.0158C106.279 18.395 102.362 17.491 99.2478 17.491C96.965 17.5018 94.7086 17.9805 92.618 18.8973L93.3212 22.4131C94.9014 21.7027 96.6113 21.3266 98.3437 21.3081C100.654 21.3081 101.357 22.2122 101.357 23.518C101.374 23.7898 101.339 24.0623 101.257 24.3216H99.5491C96.3347 24.3216 93.4216 24.9243 91.5131 26.632C90.8668 27.2082 90.3594 27.9233 90.0288 28.7235C89.6983 29.5238 89.5532 30.3885 89.6045 31.2528C89.5762 31.86 89.6682 32.4669 89.8754 33.0384C90.0825 33.6099 90.4006 34.1349 90.8114 34.583C91.2222 35.0311 91.7175 35.3936 92.2689 35.6496C92.8203 35.9055 93.4169 36.0499 94.0243 36.0744H94.627C95.7045 36.0344 96.7574 35.7406 97.7 35.217C98.6425 34.6933 99.4482 33.9546 100.051 33.0609C100.554 36.9785 108.087 36.5767 111.101 34.5676C113.21 33.1613 114.014 31.3532 114.818 28.8419C115.119 27.8374 115.42 26.7325 115.621 25.728H115.722C116.626 27.737 117.429 30.2482 118.032 32.0564H120.142L123.356 28.2392C123.959 27.5361 124.863 26.4311 125.365 25.728H125.465C124.561 28.9424 123.256 33.0609 125.365 36.3758L130.187 34.5676C129.44 32.6435 129.334 30.5296 129.885 28.5406ZM100.755 28.0383C100.508 29.0559 99.9489 29.9709 99.1564 30.6553C98.3639 31.3397 97.3774 31.7593 96.3347 31.8555C95.2297 31.8555 94.5266 31.3532 94.5266 30.2482C94.5146 29.9446 94.5717 29.6422 94.6935 29.3638C94.8153 29.0854 94.9986 28.8383 95.2297 28.641C96.0333 27.8374 97.5401 27.4356 99.8505 27.4356H100.855L100.755 28.0383ZM165.746 17.5914C163.135 16.9887 160.824 17.7923 158.715 20.7054C158.824 19.433 158.505 18.1606 157.811 17.0892L153.592 18.6964C154.1 19.7581 154.275 20.9487 154.094 22.1117L152.185 31.0519C151.08 31.6546 147.766 31.9559 147.364 31.4537C147.565 30.1478 148.067 28.3397 148.469 26.8329C148.767 25.544 148.969 24.2344 149.071 22.9153C149.071 18.2946 145.154 17.3905 142.04 17.3905C139.757 17.4014 137.501 17.88 135.41 18.7968L136.113 22.3126C137.693 21.6023 139.403 21.2261 141.136 21.2077C143.446 21.2077 144.149 22.1117 144.149 23.4176C144.155 23.6889 144.121 23.9595 144.049 24.2212H142.341C139.127 24.2212 136.214 24.8239 134.406 26.5316C133.759 27.1078 133.252 27.8228 132.921 28.6231C132.591 29.4233 132.446 30.288 132.497 31.1523C132.469 31.7596 132.561 32.3664 132.768 32.938C132.975 33.5095 133.293 34.0344 133.704 34.4826C134.115 34.9307 134.61 35.2932 135.161 35.5491C135.713 35.8051 136.309 35.9494 136.917 35.9739H137.52C138.597 35.934 139.65 35.6402 140.592 35.1165C141.535 34.5929 142.341 33.8542 142.944 32.9604C142.843 34.0654 146.661 37.1794 151.482 35.3712L149.473 44.5123H154.496L156.505 35.4717C157.633 35.8746 158.823 36.0786 160.021 36.0744C165.847 36.0744 169.965 31.6546 170.166 25.2257C170.267 21.9108 169.162 18.395 166.048 17.6919M143.346 28.1388C143.099 29.1564 142.54 30.0713 141.748 30.7558C140.955 31.4402 139.969 31.8598 138.926 31.9559C137.821 31.9559 137.218 31.4537 137.218 30.3487C137.206 30.0451 137.263 29.7427 137.385 29.4643C137.507 29.1859 137.69 28.9388 137.921 28.7415C138.725 27.9379 140.232 27.5361 142.542 27.5361H143.547L143.346 28.1388ZM164.943 25.6275C164.842 28.9424 162.833 31.8555 159.418 31.8555C158.666 31.8284 157.921 31.693 157.208 31.4537L157.911 27.5361C158.916 21.9108 165.244 19.0982 164.943 25.6275ZM170.568 35.5721H175.59L177.097 28.9424C177.405 27.1762 178.09 25.4973 179.106 24.0203C179.485 23.4165 180 22.9106 180.611 22.544C181.222 22.1774 181.911 21.9605 182.622 21.9108C183.526 21.9108 183.928 22.4131 183.928 23.3171C183.926 23.9322 183.824 24.5428 183.627 25.1253L181.316 35.5721H186.339L187.845 28.9424C188.125 27.151 188.851 25.4585 189.955 24.0203C190.333 23.4165 190.849 22.9106 191.46 22.544C192.071 22.1774 192.76 21.9605 193.471 21.9108C193.654 21.9004 193.837 21.9305 194.007 21.9989C194.177 22.0674 194.33 22.1725 194.454 22.3068C194.579 22.4412 194.673 22.6013 194.728 22.776C194.784 22.9506 194.801 23.1354 194.777 23.3171C194.775 23.9322 194.673 24.5428 194.475 25.1253L192.968 31.9559C192.528 33.6028 192.707 35.3539 193.471 36.878L198.192 35.1703C197.776 34.0445 197.706 32.8204 197.991 31.6546L199.397 25.3262C199.696 24.0372 199.898 22.7277 200 21.4086C200 18.8973 198.292 17.5914 195.781 17.5914C192.968 17.5914 190.457 19.6005 188.95 21.509H188.85C188.909 20.9802 188.848 20.4448 188.672 19.9427C188.496 19.4405 188.21 18.9844 187.833 18.6081C187.457 18.2318 187.001 17.9451 186.499 17.7691C185.997 17.5931 185.461 17.5324 184.932 17.5914C182.22 17.5914 179.709 19.5 178.303 21.4086H178.202C178.39 20.0154 178.217 18.5973 177.7 17.2901L173.28 18.8973C173.677 19.9549 173.782 21.1003 173.581 22.2122L170.568 35.5721Z" fill="#F15A22"/>
<path d="M50.8304 10.0576C49.1228 10.0576 44.2007 10.0576 42.9953 15.2811L38.475 35.5721H44.3011L48.2187 17.3905C48.5201 16.0847 48.9219 14.8793 51.0313 14.9797H59.2683L60.1724 10.0576H50.8304Z" fill="#F15A22"/>
<path d="M26.4072 15.5434L20.4836 6.22679L21.086 4.62394L33.8367 1.91913C34.4391 1.81895 34.7403 2.01931 34.3387 2.62037L27.4112 15.4432C27.11 16.0442 26.7084 15.9441 26.4072 15.5434Z" fill="#FDB913"/>
<path d="M26.8088 9.7331V2.01939C26.8088 1.41832 26.608 1.01761 25.9052 0.917428L17.2708 0.0158235C16.568 -0.0843546 16.4677 0.416538 16.4677 0.917428L17.4716 10.1338C17.4716 10.5345 17.7728 10.9352 18.2748 10.9352H18.4756L26.106 10.5345C26.608 10.6347 26.8088 10.3342 26.8088 9.7331Z" fill="#B41E8E"/>
<path d="M14.6605 42.5919C16.4677 42.5919 17.8733 43.9944 17.8733 45.7976C17.8733 47.6008 16.4677 49.0033 14.6605 49.0033C12.8533 49.0033 11.4477 47.6008 11.4477 45.7976C11.4477 43.9944 12.8533 42.5919 14.6605 42.5919ZM6.72895 42.1912C11.7489 40.5884 17.1705 38.9855 22.1904 37.3827C22.8932 37.1823 23.1944 36.8818 23.1944 35.6796L23.4956 23.0572L29.2184 20.152C29.7204 19.9517 29.9212 19.2504 29.7204 18.7495C29.5196 18.2487 28.8168 18.0483 28.3148 18.2487L22.6924 21.1538C21.9896 21.5545 21.588 22.2558 21.4876 23.0572L21.3872 24.9606L1.20699 26.5634C0.504193 26.5634 0.00219727 27.2647 0.00219727 27.9659C0.00219727 28.1663 0.102596 28.2665 0.102596 28.4668L4.82136 41.1894C5.12256 41.9909 5.92575 42.3916 6.72895 42.1912ZM24.4996 37.8836C25.4032 37.8836 26.2064 38.685 26.2064 39.5866C26.2064 40.4882 25.4032 41.2896 24.4996 41.2896C23.596 41.2896 22.7928 40.4882 22.7928 39.5866C22.7928 38.685 23.596 37.8836 24.4996 37.8836Z" fill="#50B848"/>
<path d="M9.84135 14.1409L8.43576 20.2518L1.80941 23.3573C1.30741 23.5577 1.30741 24.0585 1.70901 24.2589L6.92977 27.1641L5.72498 35.7794C5.62458 36.1801 6.02617 36.4806 6.52817 35.9797L13.3553 28.9673L20.3833 30.2696C21.2869 30.4699 21.1865 29.8689 20.9857 29.5683L17.6725 22.9566L22.7929 14.8422C23.094 14.3413 22.7929 13.9406 22.2909 14.1409L13.8573 17.547L10.5441 13.7402C10.2429 13.3395 9.94175 13.7402 9.84135 14.1409Z" fill="#0072BC"/>
<path d="M41.3667 0.316497L40.2623 0.917571L38.7563 0.617034C38.3547 0.516856 38.3547 0.617037 38.3547 0.917571L38.5555 2.01953L37.2503 3.12149C37.0495 3.32184 37.1499 3.5222 37.4511 3.5222L39.4591 3.42202L40.4631 4.52398C40.6639 4.72434 40.8647 4.62416 40.9651 4.42381L41.5675 3.02131L43.7763 2.32006C44.0775 2.32006 44.0775 2.01953 43.7763 2.01953L41.7683 1.41846V0.516857C41.7683 0.0159668 41.5675 0.11614 41.3667 0.316497Z" fill="#50B848"/>
<path d="M5.42383 26.2627L6.92982 27.0641L5.72503 35.6794C5.62463 36.0801 6.02622 36.3807 6.52822 35.8798L13.3554 28.8673L20.3833 30.1696C21.2869 30.37 21.1865 29.7689 20.9857 29.4684L18.7769 25.0605L5.42383 26.2627Z" fill="#008C44"/>
<path d="M26.8088 9.73309V3.42188L20.4837 4.72419C19.9817 4.82436 19.9817 5.42543 20.1825 5.72597L23.3952 10.7349L26.0056 10.6347C26.608 10.6347 26.8088 10.3342 26.8088 9.73309Z" fill="#6F2C91"/>
</svg>
